HIERARCHY
ROOT Hips
{
    OFFSET 0.000000 0.000000 0.000000
    CHANNELS 6 Xposition Yposition Zposition Zrotation Xrotation Yrotation
    JOINT Spine
    {
        OFFSET -0.000000 7.236184 0.000000
        CHANNELS 3 Zrotation Xrotation Yrotation
        JOINT Spine1
        {
            OFFSET -0.000000 20.420147 0.000000
            CHANNELS 3 Zrotation Xrotation Yrotation
            JOINT Neck
            {
                OFFSET -0.000000 20.336288 1.848754
                CHANNELS 3 Zrotation Xrotation Yrotation
                JOINT Head
                {
                    OFFSET -0.000000 12.354461 -1.764923
                    CHANNELS 3 Zrotation Xrotation Yrotation
                    End Site
                    {
                        OFFSET -0.000000 22.061537 0.000000
                    }
                }
            }
            JOINT LeftShoulder
            {
                OFFSET 3.573296 18.396038 -0.314103
                CHANNELS 3 Zrotation Xrotation Yrotation
                JOINT LeftArm
                {
                    OFFSET 10.880760 0.000000 0.000000
                    CHANNELS 3 Zrotation Xrotation Yrotation
                    JOINT LeftForeArm
                    {
                        OFFSET 27.185530 0.000000 0.000000
                        CHANNELS 3 Zrotation Xrotation Yrotation
                        JOINT LeftHand
                        {
                            OFFSET 27.825975 0.000000 0.000000
                            CHANNELS 3 Zrotation Xrotation Yrotation
                            End Site
                            {
                                OFFSET 13.236923 0.000000 0.000000
                            }
                        }
                    }
                }
            }
            JOINT RightShoulder
            {
                OFFSET -3.474926 18.396038 -0.314103
                CHANNELS 3 Zrotation Xrotation Yrotation
                JOINT RightArm
                {
                    OFFSET -10.880760 0.000000 0.000000
                    CHANNELS 3 Zrotation Xrotation Yrotation
                    JOINT RightForeArm
                    {
                        OFFSET -27.185530 0.000000 0.000000
                        CHANNELS 3 Zrotation Xrotation Yrotation
                        JOINT RightHand
                        {
                            OFFSET -27.825975 0.000000 0.000000
                            CHANNELS 3 Zrotation Xrotation Yrotation
                            End Site
                            {
                                OFFSET -13.236923 0.000000 0.000000
                            }
                        }
                    }
                }
            }
        }
    }
    JOINT LeftUpLeg
    {
        OFFSET 8.824615 0.000000 0.000000
        CHANNELS 3 Zrotation Xrotation Yrotation
        JOINT LeftLeg
        {
            OFFSET -0.000000 -35.111282 0.000000
            CHANNELS 3 Zrotation Xrotation Yrotation
            JOINT LeftFoot
            {
                OFFSET -0.000000 -42.324711 0.000000
                CHANNELS 3 Zrotation Xrotation Yrotation
                JOINT LeftToeBase
                {
                    OFFSET -0.000000 -5.735999 13.236923
                    CHANNELS 3 Zrotation Xrotation Yrotation
                    End Site
                    {
                        OFFSET -0.000000 0.000000 3.529846
                    }
                }
            }
        }
    }
    JOINT RightUpLeg
    {
        OFFSET -8.824615 0.000000 0.000000
        CHANNELS 3 Zrotation Xrotation Yrotation
        JOINT RightLeg
        {
            OFFSET -0.000000 -35.111282 0.000000
            CHANNELS 3 Zrotation Xrotation Yrotation
            JOINT RightFoot
            {
                OFFSET -0.000000 -42.324711 0.000000
                CHANNELS 3 Zrotation Xrotation Yrotation
                JOINT RightToeBase
                {
                    OFFSET -0.000000 -5.735999 13.236923
                    CHANNELS 3 Zrotation Xrotation Yrotation
                    End Site
                    {
                        OFFSET -0.000000 0.000000 3.529846
                    }
                }
            }
        }
    }
}
MOTION
Frames:    9
Frame Time:    0.008333
9.171298    86.194351    98.568283    9.930685    30.243784    -83.122475    -0.598555    -3.663115    1.143456    7.081329    8.782650    0.618132    3.781927    22.425041    -17.238670    19.486267    5.530544    -15.968074    2.958601    13.936701    -5.658856    -37.429790    36.503601    -48.538334    32.821022    -31.831665    -102.237083    47.666473    8.252569    -4.499803    9.196269    17.700169    -7.147151    48.651608    24.270258    29.074274    -4.812621    -15.416648    6.011252    -26.899311    -12.659951    -10.792015    26.964127    -27.961693    3.520795    2.570416    22.776197    -16.745579    5.185834    -8.623413    -6.326960    2.164903    4.209222    -2.382176    -40.254368    -35.550640    -13.590597    14.096327    69.577728    -6.818338    6.683029    0.275218    -16.390614    0.898324    2.972005    -0.967759
9.174021    86.179962    98.607285    9.823813    30.088034    -83.241142    -0.541934    -3.618058    1.071582    7.160049    8.763834    0.539276    3.798467    22.402418    -17.265112    19.569036    5.495657    -15.982251    2.960708    13.942977    -5.645738    -37.569695    36.505581    -48.629070    33.124016    -31.523893    -101.241753    47.625195    8.229312    -4.503253    9.211332    17.707354    -7.194905    48.674992    24.312656    29.026651    -4.769313    -15.453023    6.033137    -26.683514    -12.719560    -10.790128    26.831896    -27.742689    3.578979    2.555863    22.746449    -16.673836    5.187241    -8.626505    -6.317372    2.164040    4.190055    -2.381304    -40.487305    -35.991856    -13.826282    15.708818    71.913589    -8.168250    6.676990    0.341462    -16.272861    0.921197    2.899533    -0.992493
9.175354    86.164948    98.650909    9.721893    29.924776    -83.378395    -0.487043    -3.577779    0.998064    7.235672    8.751219    0.458827    3.820313    22.377350    -17.293253    19.660189    5.464436    -15.997833    2.961250    13.949245    -5.634704    -37.711849    36.511539    -48.741016    33.426369    -31.174652    -100.187714    47.593086    8.203631    -4.511763    9.226371    17.711641    -7.241425    48.692097    24.359831    28.981848    -4.724356    -15.487206    6.059008    -26.445650    -12.779741    -10.785038    26.698681    -27.513075    3.653681    2.535983    22.710173    -16.589407    5.178090    -8.627829    -6.311880    2.165441    4.165851    -2.382942    -40.722900    -36.410370    -14.102831    17.604134    74.188896    -9.803996    6.665490    0.412944    -16.132751    0.946542    2.830972    -1.019890
9.175130    86.149506    98.699120    9.625662    29.754299    -83.534851    -0.434669    -3.543265    0.923925    7.307666    8.745714    0.377761    3.847140    22.349981    -17.322857    19.758945    5.436798    -16.014603    2.960761    13.956216    -5.625164    -37.855637    36.518547    -48.874664    33.722416    -30.780910    -99.081024    47.567421    8.177369    -4.525968    9.241132    17.712511    -7.286491    48.703850    24.410854    28.939705    -4.677550    -15.518215    6.088600    -26.186493    -12.839417    -10.776752    26.565224    -27.273157    3.746354    2.510609    22.667046    -16.492699    5.158174    -8.627007    -6.309847    2.169125    4.135312    -2.387117    -40.959145    -36.805443    -14.408021    19.927263    76.385185    -11.873432    6.655079    0.483195    -15.980024    0.969946    2.773571    -1.045186
9.173309    86.133507    98.752701    9.534403    29.574114    -83.714439    -0.383912    -3.514837    0.848397    7.377207    8.747499    0.295199    3.879235    22.319607    -17.354233    19.866777    5.412428    -16.032732    2.959609    13.964300    -5.616957    -38.002197    36.526066    -49.033474    34.014423    -30.333950    -97.902771    47.542671    8.150546    -4.545158    9.256577    17.709751    -7.331304    48.710171    24.466024    28.899569    -4.627904    -15.546162    6.122321    -25.901562    -12.899137    -10.765327    26.430212    -27.019348    3.861255    2.479337    22.616289    -16.383919    5.127297    -8.623501    -6.309701    2.173704    4.096555    -2.392313    -41.198158    -37.185173    -14.735763    22.989342    78.525642    -14.685677    6.650980    0.548015    -15.819957    0.988247    2.732050    -1.064963
9.169961    86.117355    98.810837    9.450733    29.387739    -83.915413    -0.335368    -3.493514    0.772774    7.443793    8.755873    0.212353    3.915959    22.286139    -17.386728    19.980633    5.391819    -16.052034    2.958079    13.973349    -5.609911    -38.146164    36.536087    -49.217033    34.296837    -29.842117    -96.668854    47.511616    8.122822    -4.565703    9.272203    17.703224    -7.375522    48.712032    24.523558    28.862040    -4.576243    -15.569724    6.159133    -25.595497    -12.957135    -10.750605    26.296589    -26.756699    3.998212    2.443000    22.558828    -16.265142    5.085978    -8.616935    -6.310573    2.178593    4.048473    -2.397886    -41.433990    -37.545059    -15.070888    27.215775    80.555977    -18.670691    6.656001    0.602654    -15.662893    0.999440    2.708539    -1.077059
9.165137    86.100952    98.873749    9.375518    29.194826    -84.140244    -0.288146    -3.479837    0.696330    7.508300    8.769657    0.128575    3.956573    22.249321    -17.419971    20.101585    5.375209    -16.071983    2.956309    13.984057    -5.603619    -38.285034    36.550816    -49.428165    34.571655    -29.304718    -95.368217    47.468517    8.093107    -4.583970    9.288394    17.693380    -7.419523    48.709496    24.583389    28.826982    -4.522285    -15.588907    6.198852    -25.267351    -13.013448    -10.732480    26.164495    -26.485119    4.159704    2.401920    22.495169    -16.136887    5.034664    -8.607089    -6.310555    2.183010    3.988717    -2.402989    -41.665634    -37.890106    -15.406767    33.491337    82.456566    -24.711000    6.670118    0.645242    -15.515297    1.003405    2.701354    -1.081342
9.158895    86.084251    98.940887    9.310745    28.997370    -84.388878    -0.241839    -3.474621    0.619278    7.570542    8.787272    0.044067    4.000332    22.209967    -17.453293    20.227753    5.362023    -16.092081    2.954401    13.996324    -5.597622    -38.415146    36.571693    -49.664833    34.834904    -28.726402    -94.008865    47.408829    8.061381    -4.595994    9.304737    17.680872    -7.462636    48.703384    24.644594    28.794558    -4.466479    -15.603189    6.240592    -24.921133    -13.067211    -10.710950    26.035427    -26.207893    4.345115    2.356688    22.426479    -15.999680    4.974819    -8.593964    -6.308553    2.185118    3.916167    -2.405604    -41.889286    -38.220924    -15.734198    43.399384    84.146957    -34.388901    6.689804    0.674217    -15.385620    1.000075    2.708316    -1.077744
9.151177    86.066994    99.012550    9.257632    28.794771    -84.664177    -0.195890    -3.478715    0.540777    7.631483    8.807367    -0.041843    4.046081    22.168650    -17.485992    20.360077    5.351630    -16.111488    2.952104    14.010309    -5.591952    -38.536518    36.598045    -49.925377    35.082886    -28.102253    -92.585373    47.329990    8.028265    -4.598955    9.321078    17.666533    -7.504470    48.693874    24.707718    28.764753    -4.409111    -15.612966    6.283787    -24.557547    -13.118627    -10.686195    25.909029    -25.924873    4.554969    2.307123    22.352980    -15.851373    4.907372    -8.577605    -6.303698    2.184790    3.829474    -2.405594    -42.103806    -38.541862    -16.048819    59.798157    85.483421    -50.558094    6.709561    0.689518    -15.279381    0.991163    2.726237    -1.068115
